<svg width="232" height="54" viewBox="0 0 232 54" fill="none" xmlns="http://www.w3.org/2000/svg">
<rect width="50.4" height="50.4" fill="#497F00"/>
<path d="M59.2296 25V10.1636H61.4681V16.6111H68.8645V10.1636H71.1103V25H68.8645V18.5308H61.4681V25H59.2296ZM78.8834 25.2246C77.8402 25.2246 76.9299 24.9855 76.1523 24.5074C75.3748 24.0293 74.7711 23.3604 74.3412 22.5007C73.9114 21.6411 73.6965 20.6365 73.6965 19.4871C73.6965 18.3328 73.9114 17.3234 74.3412 16.4589C74.7711 15.5945 75.3748 14.9232 76.1523 14.445C76.9299 13.9669 77.8402 13.7278 78.8834 13.7278C79.9266 13.7278 80.837 13.9669 81.6145 14.445C82.3921 14.9232 82.9958 15.5945 83.4256 16.4589C83.8554 17.3234 84.0704 18.3328 84.0704 19.4871C84.0704 20.6365 83.8554 21.6411 83.4256 22.5007C82.9958 23.3604 82.3921 24.0293 81.6145 24.5074C80.837 24.9855 79.9266 25.2246 78.8834 25.2246ZM78.8907 23.4062C79.5668 23.4062 80.127 23.2276 80.5713 22.8702C81.0157 22.5128 81.3441 22.0371 81.5566 21.443C81.7739 20.849 81.8826 20.1946 81.8826 19.4798C81.8826 18.7699 81.7739 18.1179 81.5566 17.5239C81.3441 16.925 81.0157 16.4445 80.5713 16.0822C80.127 15.72 79.5668 15.5389 78.8907 15.5389C78.2097 15.5389 77.6446 15.72 77.1955 16.0822C76.7512 16.4445 76.4203 16.925 76.203 17.5239C75.9905 18.1179 75.8843 18.7699 75.8843 19.4798C75.8843 20.1946 75.9905 20.849 76.203 21.443C76.4203 22.0371 76.7512 22.5128 77.1955 22.8702C77.6446 23.2276 78.2097 23.4062 78.8907 23.4062ZM86.4881 25V13.8727H88.5817V15.6403H88.6977C88.9005 15.0415 89.2579 14.5706 89.7698 14.2277C90.2866 13.88 90.871 13.7061 91.5229 13.7061C91.6582 13.7061 91.8175 13.7109 92.0011 13.7206C92.1894 13.7303 92.3367 13.7423 92.443 13.7568V15.8287C92.356 15.8045 92.2015 15.778 91.9793 15.749C91.7572 15.7152 91.535 15.6983 91.3129 15.6983C90.8009 15.6983 90.3445 15.807 89.9437 16.0243C89.5477 16.2368 89.2337 16.5338 89.0019 16.9153C88.7701 17.292 88.6542 17.7219 88.6542 18.2048V25H86.4881ZM94.3174 25V13.8727H96.4835V25H94.3174ZM95.4113 12.1558C95.0346 12.1558 94.711 12.0303 94.4406 11.7791C94.175 11.5232 94.0422 11.2189 94.0422 10.8663C94.0422 10.5089 94.175 10.2047 94.4406 9.95355C94.711 9.69758 95.0346 9.5696 95.4113 9.5696C95.788 9.5696 96.1092 9.69758 96.3748 9.95355C96.6453 10.2047 96.7805 10.5089 96.7805 10.8663C96.7805 11.2189 96.6453 11.5232 96.3748 11.7791C96.1092 12.0303 95.788 12.1558 95.4113 12.1558ZM99.1657 25V23.5149L105.193 15.8577V15.7562H99.3613V13.8727H107.895V15.452L102.1 23.0151V23.1165H108.098V25H99.1657ZM115.022 25.2246C113.979 25.2246 113.068 24.9855 112.291 24.5074C111.513 24.0293 110.909 23.3604 110.48 22.5007C110.05 21.6411 109.835 20.6365 109.835 19.4871C109.835 18.3328 110.05 17.3234 110.48 16.4589C110.909 15.5945 111.513 14.9232 112.291 14.445C113.068 13.9669 113.979 13.7278 115.022 13.7278C116.065 13.7278 116.975 13.9669 117.753 14.445C118.53 14.9232 119.134 15.5945 119.564 16.4589C119.994 17.3234 120.209 18.3328 120.209 19.4871C120.209 20.6365 119.994 21.6411 119.564 22.5007C119.134 23.3604 118.53 24.0293 117.753 24.5074C116.975 24.9855 116.065 25.2246 115.022 25.2246ZM115.029 23.4062C115.705 23.4062 116.265 23.2276 116.71 22.8702C117.154 22.5128 117.482 22.0371 117.695 21.443C117.912 20.849 118.021 20.1946 118.021 19.4798C118.021 18.7699 117.912 18.1179 117.695 17.5239C117.482 16.925 117.154 16.4445 116.71 16.0822C116.265 15.72 115.705 15.5389 115.029 15.5389C114.348 15.5389 113.783 15.72 113.334 16.0822C112.889 16.4445 112.559 16.925 112.341 17.5239C112.129 18.1179 112.023 18.7699 112.023 19.4798C112.023 20.1946 112.129 20.849 112.341 21.443C112.559 22.0371 112.889 22.5128 113.334 22.8702C113.783 23.2276 114.348 23.4062 115.029 23.4062ZM124.792 18.3932V25H122.626V13.8727H124.706V15.6838H124.843C125.099 15.0946 125.5 14.6213 126.046 14.2639C126.596 13.9065 127.289 13.7278 128.125 13.7278C128.883 13.7278 129.547 13.8872 130.117 14.206C130.687 14.5199 131.129 14.9884 131.443 15.6114C131.757 16.2344 131.914 17.0047 131.914 17.9223V25H129.748V18.1831C129.748 17.3766 129.538 16.7463 129.117 16.2923C128.697 15.8335 128.12 15.6041 127.386 15.6041C126.884 15.6041 126.437 15.7128 126.046 15.9301C125.659 16.1474 125.353 16.4662 125.126 16.8864C124.904 17.3017 124.792 17.804 124.792 18.3932ZM59.2296 49V34.1636H61.4681V47.073H68.1908V49H59.2296ZM73.8088 49.2463C73.1037 49.2463 72.4662 49.1159 71.8963 48.8551C71.3264 48.5895 70.8748 48.2055 70.5416 47.7033C70.2132 47.201 70.049 46.5852 70.049 45.856C70.049 45.2281 70.1697 44.7114 70.4112 44.3057C70.6527 43.9 70.9787 43.5788 71.3892 43.3422C71.7997 43.1055 72.2585 42.9268 72.7656 42.8061C73.2727 42.6854 73.7895 42.5936 74.3159 42.5308C74.9824 42.4536 75.5233 42.3908 75.9386 42.3425C76.3539 42.2893 76.6558 42.2048 76.8441 42.0889C77.0325 41.973 77.1267 41.7847 77.1267 41.5239V41.4732C77.1267 40.8405 76.948 40.3503 76.5906 40.0026C76.238 39.6548 75.7116 39.481 75.0113 39.481C74.2821 39.481 73.7074 39.6428 73.2872 39.9663C72.8718 40.2851 72.5845 40.6401 72.4251 41.0312L70.3895 40.5676C70.6309 39.8915 70.9835 39.3457 71.4471 38.9304C71.9156 38.5102 72.4541 38.206 73.0626 38.0176C73.6711 37.8244 74.311 37.7278 74.9824 37.7278C75.4267 37.7278 75.8976 37.781 76.395 37.8872C76.8973 37.9886 77.3657 38.177 77.8004 38.4523C78.2399 38.7276 78.5997 39.1212 78.8798 39.6331C79.1599 40.1402 79.3 40.7994 79.3 41.6108V49H77.1846V47.4787H77.0977C76.9576 47.7588 76.7476 48.0341 76.4674 48.3045C76.1873 48.575 75.8275 48.7996 75.388 48.9783C74.9485 49.157 74.4221 49.2463 73.8088 49.2463ZM74.2797 47.5077C74.8785 47.5077 75.3904 47.3893 75.8154 47.1527C76.2453 46.9161 76.5713 46.607 76.7934 46.2254C77.0204 45.8391 77.1339 45.4261 77.1339 44.9866V43.5523C77.0566 43.6295 76.9069 43.702 76.6848 43.7696C76.4674 43.8324 76.2187 43.8879 75.9386 43.9362C75.6585 43.9797 75.3856 44.0207 75.12 44.0594C74.8544 44.0932 74.6322 44.1222 74.4535 44.1463C74.0333 44.1994 73.6494 44.2888 73.3017 44.4143C72.9588 44.5399 72.6835 44.721 72.4758 44.9577C72.273 45.1895 72.1716 45.4986 72.1716 45.8849C72.1716 46.421 72.3696 46.8267 72.7656 47.102C73.1616 47.3724 73.6663 47.5077 74.2797 47.5077ZM84.3511 42.3932V49H82.185V37.8727H84.2641V39.6838H84.4018C84.6577 39.0946 85.0586 38.6213 85.6043 38.2639C86.1549 37.9065 86.8479 37.7278 87.6835 37.7278C88.4417 37.7278 89.1058 37.8872 89.6756 38.206C90.2455 38.5199 90.6874 38.9884 91.0014 39.6114C91.3153 40.2344 91.4722 41.0047 91.4722 41.9223V49H89.3062V42.1831C89.3062 41.3766 89.0961 40.7463 88.6759 40.2923C88.2558 39.8335 87.6786 39.6041 86.9445 39.6041C86.4423 39.6041 85.9955 39.7128 85.6043 39.9301C85.218 40.1474 84.9113 40.4662 84.6843 40.8864C84.4621 41.3017 84.3511 41.804 84.3511 42.3932ZM98.5427 49.2173C97.6444 49.2173 96.8427 48.9879 96.1376 48.5291C95.4373 48.0655 94.8867 47.4062 94.4859 46.5514C94.0898 45.6918 93.8918 44.6607 93.8918 43.4581C93.8918 42.2555 94.0923 41.2268 94.4931 40.372C94.8988 39.5172 95.4542 38.8628 96.1593 38.4088C96.8644 37.9548 97.6637 37.7278 98.5572 37.7278C99.2478 37.7278 99.8032 37.8437 100.223 38.0756C100.648 38.3026 100.977 38.5682 101.209 38.8724C101.445 39.1767 101.629 39.4447 101.759 39.6766H101.89V34.1636H104.056V49H101.94V47.2686H101.759C101.629 47.5053 101.44 47.7757 101.194 48.08C100.953 48.3842 100.619 48.6499 100.194 48.8768C99.7694 49.1038 99.2188 49.2173 98.5427 49.2173ZM99.0208 47.37C99.6438 47.37 100.17 47.2058 100.6 46.8774C101.035 46.5442 101.363 46.083 101.585 45.4937C101.812 44.9045 101.926 44.2187 101.926 43.4364C101.926 42.6636 101.815 41.9875 101.593 41.408C101.37 40.8284 101.044 40.3768 100.615 40.0533C100.185 39.7297 99.6535 39.5679 99.0208 39.5679C98.3688 39.5679 97.8255 39.7369 97.3908 40.075C96.9562 40.4131 96.6278 40.8743 96.4056 41.4587C96.1883 42.043 96.0796 42.7023 96.0796 43.4364C96.0796 44.1801 96.1907 44.849 96.4129 45.443C96.635 46.0371 96.9634 46.508 97.3981 46.8557C97.8376 47.1986 98.3785 47.37 99.0208 47.37ZM115.485 40.5893L113.522 40.9371C113.44 40.6859 113.31 40.4469 113.131 40.2199C112.957 39.9929 112.72 39.807 112.421 39.6621C112.122 39.5172 111.747 39.4447 111.298 39.4447C110.685 39.4447 110.173 39.5824 109.762 39.8577C109.352 40.1281 109.147 40.4783 109.147 40.9081C109.147 41.28 109.284 41.5794 109.559 41.8064C109.835 42.0334 110.279 42.2193 110.892 42.3642L112.66 42.7699C113.684 43.0065 114.447 43.3712 114.949 43.8638C115.452 44.3564 115.703 44.9963 115.703 45.7835C115.703 46.45 115.509 47.044 115.123 47.5656C114.742 48.0824 114.208 48.4881 113.522 48.7827C112.841 49.0773 112.052 49.2246 111.153 49.2246C109.907 49.2246 108.891 48.9589 108.103 48.4277C107.316 47.8916 106.833 47.131 106.655 46.1457L108.748 45.827C108.879 46.3727 109.147 46.7857 109.552 47.0658C109.958 47.3411 110.487 47.4787 111.139 47.4787C111.849 47.4787 112.416 47.3314 112.841 47.0368C113.266 46.7374 113.479 46.3727 113.479 45.9429C113.479 45.5952 113.348 45.303 113.087 45.0663C112.832 44.8297 112.438 44.651 111.907 44.5303L110.023 44.1173C108.985 43.8807 108.217 43.504 107.719 42.9872C107.227 42.4705 106.981 41.8161 106.981 41.024C106.981 40.3672 107.164 39.7925 107.531 39.2999C107.898 38.8072 108.405 38.4233 109.052 38.148C109.7 37.8679 110.441 37.7278 111.276 37.7278C112.479 37.7278 113.426 37.9886 114.116 38.5102C114.807 39.027 115.263 39.72 115.485 40.5893ZM122.771 49.2246C121.694 49.2246 120.767 48.9807 119.989 48.4929C119.217 48.0003 118.623 47.3217 118.207 46.4572C117.792 45.5928 117.584 44.6027 117.584 43.4871C117.584 42.357 117.797 41.3597 118.222 40.4952C118.647 39.6259 119.246 38.9473 120.018 38.4595C120.791 37.9717 121.702 37.7278 122.75 37.7278C123.595 37.7278 124.348 37.8848 125.01 38.1987C125.671 38.5078 126.205 38.9425 126.611 39.5027C127.021 40.0629 127.265 40.7173 127.342 41.4659H125.234C125.118 40.9443 124.853 40.4952 124.438 40.1185C124.027 39.7418 123.476 39.5534 122.786 39.5534C122.182 39.5534 121.653 39.7128 121.199 40.0315C120.75 40.3455 120.4 40.7946 120.149 41.379C119.898 41.9585 119.772 42.6443 119.772 43.4364C119.772 44.2477 119.895 44.948 120.142 45.5372C120.388 46.1264 120.736 46.5828 121.185 46.9064C121.639 47.23 122.172 47.3918 122.786 47.3918C123.196 47.3918 123.568 47.3169 123.901 47.1672C124.239 47.0126 124.522 46.7929 124.749 46.508C124.981 46.223 125.143 45.8801 125.234 45.4793H127.342C127.265 46.1989 127.031 46.8412 126.64 47.4062C126.249 47.9713 125.725 48.4156 125.068 48.7392C124.416 49.0628 123.65 49.2246 122.771 49.2246ZM132.897 49.2463C132.192 49.2463 131.554 49.1159 130.985 48.8551C130.415 48.5895 129.963 48.2055 129.63 47.7033C129.301 47.201 129.137 46.5852 129.137 45.856C129.137 45.2281 129.258 44.7114 129.499 44.3057C129.741 43.9 130.067 43.5788 130.477 43.3422C130.888 43.1055 131.347 42.9268 131.854 42.8061C132.361 42.6854 132.878 42.5936 133.404 42.5308C134.071 42.4536 134.612 42.3908 135.027 42.3425C135.442 42.2893 135.744 42.2048 135.932 42.0889C136.121 41.973 136.215 41.7847 136.215 41.5239V41.4732C136.215 40.8405 136.036 40.3503 135.679 40.0026C135.326 39.6548 134.8 39.481 134.1 39.481C133.37 39.481 132.796 39.6428 132.375 39.9663C131.96 40.2851 131.673 40.6401 131.513 41.0312L129.478 40.5676C129.719 39.8915 130.072 39.3457 130.535 38.9304C131.004 38.5102 131.542 38.206 132.151 38.0176C132.759 37.8244 133.399 37.7278 134.071 37.7278C134.515 37.7278 134.986 37.781 135.483 37.8872C135.986 37.9886 136.454 38.177 136.889 38.4523C137.328 38.7276 137.688 39.1212 137.968 39.6331C138.248 40.1402 138.388 40.7994 138.388 41.6108V49H136.273V47.4787H136.186C136.046 47.7588 135.836 48.0341 135.556 48.3045C135.276 48.575 134.916 48.7996 134.476 48.9783C134.037 49.157 133.51 49.2463 132.897 49.2463ZM133.368 47.5077C133.967 47.5077 134.479 47.3893 134.904 47.1527C135.334 46.9161 135.66 46.607 135.882 46.2254C136.109 45.8391 136.222 45.4261 136.222 44.9866V43.5523C136.145 43.6295 135.995 43.702 135.773 43.7696C135.556 43.8324 135.307 43.8879 135.027 43.9362C134.747 43.9797 134.474 44.0207 134.208 44.0594C133.943 44.0932 133.72 44.1222 133.542 44.1463C133.122 44.1994 132.738 44.2888 132.39 44.4143C132.047 44.5399 131.772 44.721 131.564 44.9577C131.361 45.1895 131.26 45.4986 131.26 45.8849C131.26 46.421 131.458 46.8267 131.854 47.102C132.25 47.3724 132.755 47.5077 133.368 47.5077ZM141.273 53.1727V37.8727H143.389V39.6766H143.57C143.695 39.4447 143.876 39.1767 144.113 38.8724C144.35 38.5682 144.678 38.3026 145.098 38.0756C145.518 37.8437 146.074 37.7278 146.764 37.7278C147.663 37.7278 148.464 37.9548 149.17 38.4088C149.875 38.8628 150.428 39.5172 150.829 40.372C151.234 41.2268 151.437 42.2555 151.437 43.4581C151.437 44.6607 151.237 45.6918 150.836 46.5514C150.435 47.4062 149.884 48.0655 149.184 48.5291C148.484 48.9879 147.685 49.2173 146.786 49.2173C146.11 49.2173 145.557 49.1038 145.127 48.8768C144.702 48.6499 144.369 48.3842 144.128 48.08C143.886 47.7757 143.7 47.5053 143.57 47.2686H143.439V53.1727H141.273ZM143.396 43.4364C143.396 44.2187 143.509 44.9045 143.736 45.4937C143.963 46.083 144.292 46.5442 144.722 46.8774C145.151 47.2058 145.678 47.37 146.301 47.37C146.948 47.37 147.489 47.1986 147.924 46.8557C148.358 46.508 148.687 46.0371 148.909 45.443C149.136 44.849 149.249 44.1801 149.249 43.4364C149.249 42.7023 149.138 42.043 148.916 41.4587C148.699 40.8743 148.37 40.4131 147.931 40.075C147.496 39.7369 146.953 39.5679 146.301 39.5679C145.673 39.5679 145.142 39.7297 144.707 40.0533C144.277 40.3768 143.951 40.8284 143.729 41.408C143.507 41.9875 143.396 42.6636 143.396 43.4364ZM158.66 49.2246C157.563 49.2246 156.619 48.9903 155.827 48.5219C155.04 48.0486 154.431 47.3845 154.002 46.5297C153.577 45.67 153.364 44.6631 153.364 43.5088C153.364 42.369 153.577 41.3645 154.002 40.4952C154.431 39.6259 155.03 38.9473 155.798 38.4595C156.571 37.9717 157.474 37.7278 158.508 37.7278C159.135 37.7278 159.744 37.8317 160.333 38.0393C160.922 38.247 161.451 38.573 161.92 39.0173C162.388 39.4616 162.758 40.0388 163.028 40.7487C163.298 41.4538 163.434 42.3111 163.434 43.3205V44.0884H154.588V42.4656H161.311C161.311 41.8957 161.195 41.3911 160.963 40.9516C160.732 40.5072 160.406 40.1571 159.985 39.9011C159.57 39.6452 159.082 39.5172 158.522 39.5172C157.914 39.5172 157.382 39.6669 156.928 39.9663C156.479 40.2609 156.131 40.6473 155.885 41.1254C155.644 41.5987 155.523 42.1131 155.523 42.6685V43.9362C155.523 44.68 155.653 45.3126 155.914 45.8342C156.18 46.3558 156.549 46.7543 157.022 47.0295C157.496 47.3 158.049 47.4352 158.681 47.4352C159.092 47.4352 159.466 47.3773 159.804 47.2614C160.142 47.1406 160.435 46.9619 160.681 46.7253C160.927 46.4886 161.115 46.1964 161.246 45.8487L163.296 46.2182C163.132 46.8219 162.837 47.3507 162.412 47.8047C161.992 48.2538 161.463 48.604 160.826 48.8551C160.193 49.1014 159.471 49.2246 158.66 49.2246Z" fill="#292929"/>
</svg>
