<svg width="193" height="45" viewBox="0 0 193 45" fill="none" xmlns="http://www.w3.org/2000/svg">
<rect width="42" height="42" fill="#497F00"/>
<path d="M49.3583 21V8.63636H51.2237V14.0092H57.3874V8.63636H59.2589V21H57.3874V15.609H51.2237V21H49.3583ZM65.7365 21.1871C64.8672 21.1871 64.1085 20.9879 63.4606 20.5895C62.8126 20.1911 62.3095 19.6336 61.9513 18.9173C61.5932 18.2009 61.4141 17.3638 61.4141 16.4059C61.4141 15.444 61.5932 14.6029 61.9513 13.8825C62.3095 13.162 62.8126 12.6026 63.4606 12.2042C64.1085 11.8058 64.8672 11.6065 65.7365 11.6065C66.6058 11.6065 67.3645 11.8058 68.0124 12.2042C68.6604 12.6026 69.1635 13.162 69.5217 13.8825C69.8799 14.6029 70.0589 15.444 70.0589 16.4059C70.0589 17.3638 69.8799 18.2009 69.5217 18.9173C69.1635 19.6336 68.6604 20.1911 68.0124 20.5895C67.3645 20.9879 66.6058 21.1871 65.7365 21.1871ZM65.7425 19.6719C66.306 19.6719 66.7728 19.523 67.1431 19.2251C67.5134 18.9273 67.7871 18.5309 67.9641 18.0359C68.1452 17.5408 68.2358 16.9955 68.2358 16.3999C68.2358 15.8082 68.1452 15.2649 67.9641 14.7699C67.7871 14.2708 67.5134 13.8704 67.1431 13.5685C66.7728 13.2667 66.306 13.1158 65.7425 13.1158C65.1751 13.1158 64.7042 13.2667 64.3299 13.5685C63.9596 13.8704 63.6839 14.2708 63.5028 14.7699C63.3258 15.2649 63.2372 15.8082 63.2372 16.3999C63.2372 16.9955 63.3258 17.5408 63.5028 18.0359C63.6839 18.5309 63.9596 18.9273 64.3299 19.2251C64.7042 19.523 65.1751 19.6719 65.7425 19.6719ZM72.0738 21V11.7273H73.8184V13.2003H73.915C74.0841 12.7012 74.3819 12.3088 74.8085 12.0231C75.2391 11.7333 75.7261 11.5884 76.2694 11.5884C76.3821 11.5884 76.5149 11.5924 76.6679 11.6005C76.8248 11.6085 76.9476 11.6186 77.0361 11.6307V13.3572C76.9637 13.3371 76.8349 13.315 76.6498 13.2908C76.4646 13.2627 76.2795 13.2486 76.0944 13.2486C75.6678 13.2486 75.2874 13.3391 74.9534 13.5202C74.6234 13.6973 74.3618 13.9448 74.1686 14.2628C73.9754 14.5767 73.8788 14.9349 73.8788 15.3374V21H72.0738ZM78.5982 21V11.7273H80.4032V21H78.5982ZM79.5098 10.2965C79.1958 10.2965 78.9262 10.1919 78.7008 9.9826C78.4795 9.76929 78.3688 9.51574 78.3688 9.22195C78.3688 8.92412 78.4795 8.67057 78.7008 8.46129C78.9262 8.24799 79.1958 8.14133 79.5098 8.14133C79.8237 8.14133 80.0913 8.24799 80.3127 8.46129C80.5381 8.67057 80.6507 8.92412 80.6507 9.22195C80.6507 9.51574 80.5381 9.76929 80.3127 9.9826C80.0913 10.1919 79.8237 10.2965 79.5098 10.2965ZM82.6384 21V19.7624L87.6611 13.3814V13.2969H82.8014V11.7273H89.9129V13.0433L85.0834 19.3459V19.4304H90.0819V21H82.6384ZM95.8517 21.1871C94.9824 21.1871 94.2238 20.9879 93.5758 20.5895C92.9279 20.1911 92.4248 19.6336 92.0666 18.9173C91.7084 18.2009 91.5293 17.3638 91.5293 16.4059C91.5293 15.444 91.7084 14.6029 92.0666 13.8825C92.4248 13.162 92.9279 12.6026 93.5758 12.2042C94.2238 11.8058 94.9824 11.6065 95.8517 11.6065C96.7211 11.6065 97.4797 11.8058 98.1277 12.2042C98.7756 12.6026 99.2787 13.162 99.6369 13.8825C99.9951 14.6029 100.174 15.444 100.174 16.4059C100.174 17.3638 99.9951 18.2009 99.6369 18.9173C99.2787 19.6336 98.7756 20.1911 98.1277 20.5895C97.4797 20.9879 96.7211 21.1871 95.8517 21.1871ZM95.8578 19.6719C96.4212 19.6719 96.8881 19.523 97.2583 19.2251C97.6286 18.9273 97.9023 18.5309 98.0794 18.0359C98.2605 17.5408 98.351 16.9955 98.351 16.3999C98.351 15.8082 98.2605 15.2649 98.0794 14.7699C97.9023 14.2708 97.6286 13.8704 97.2583 13.5685C96.8881 13.2667 96.4212 13.1158 95.8578 13.1158C95.2903 13.1158 94.8194 13.2667 94.4451 13.5685C94.0749 13.8704 93.7992 14.2708 93.6181 14.7699C93.441 15.2649 93.3525 15.8082 93.3525 16.3999C93.3525 16.9955 93.441 17.5408 93.6181 18.0359C93.7992 18.5309 94.0749 18.9273 94.4451 19.2251C94.8194 19.523 95.2903 19.6719 95.8578 19.6719ZM103.994 15.4943V21H102.189V11.7273H103.922V13.2365H104.036C104.25 12.7455 104.584 12.3511 105.038 12.0533C105.497 11.7554 106.075 11.6065 106.771 11.6065C107.403 11.6065 107.956 11.7393 108.431 12.005C108.906 12.2666 109.274 12.657 109.536 13.1761C109.798 13.6953 109.928 14.3372 109.928 15.1019V21H108.123V15.3192C108.123 14.6471 107.948 14.1219 107.598 13.7436C107.248 13.3613 106.767 13.1701 106.155 13.1701C105.737 13.1701 105.364 13.2607 105.038 13.4418C104.716 13.6229 104.461 13.8885 104.272 14.2386C104.087 14.5848 103.994 15.0033 103.994 15.4943ZM49.3583 41V28.6364H51.2237V39.3942H56.826V41H49.3583ZM61.5076 41.2053C60.92 41.2053 60.3888 41.0966 59.9139 40.8793C59.439 40.6579 59.0627 40.3379 58.785 39.9194C58.5113 39.5008 58.3745 38.9877 58.3745 38.38C58.3745 37.8568 58.4751 37.4261 58.6763 37.0881C58.8775 36.75 59.1492 36.4824 59.4913 36.2852C59.8334 36.0879 60.2157 35.939 60.6383 35.8384C61.0609 35.7378 61.4915 35.6613 61.9302 35.609C62.4856 35.5446 62.9364 35.4923 63.2825 35.4521C63.6286 35.4078 63.8801 35.3374 64.0371 35.2408C64.1941 35.1442 64.2725 34.9872 64.2725 34.7699V34.7276C64.2725 34.2004 64.1236 33.7919 63.8258 33.5021C63.532 33.2124 63.0933 33.0675 62.5098 33.0675C61.902 33.0675 61.4231 33.2023 61.073 33.4719C60.7269 33.7376 60.4874 34.0334 60.3546 34.3594L58.6582 33.973C58.8594 33.4096 59.1532 32.9548 59.5396 32.6087C59.93 32.2585 60.3787 32.005 60.8858 31.848C61.3929 31.687 61.9262 31.6065 62.4856 31.6065C62.8559 31.6065 63.2483 31.6508 63.6628 31.7393C64.0814 31.8239 64.4718 31.9808 64.834 32.2102C65.2002 32.4396 65.5001 32.7676 65.7335 33.1942C65.9669 33.6168 66.0836 34.1662 66.0836 34.8423V41H64.3208V39.7322H64.2484C64.1317 39.9657 63.9566 40.1951 63.7232 40.4205C63.4898 40.6458 63.1899 40.833 62.8237 40.9819C62.4574 41.1308 62.0188 41.2053 61.5076 41.2053ZM61.9 39.7564C62.3991 39.7564 62.8257 39.6578 63.1799 39.4606C63.5381 39.2634 63.8097 39.0058 63.9949 38.6879C64.184 38.3659 64.2786 38.0218 64.2786 37.6555V36.4602C64.2142 36.5246 64.0894 36.585 63.9043 36.6413C63.7232 36.6937 63.5159 36.7399 63.2825 36.7802C63.0491 36.8164 62.8217 36.8506 62.6003 36.8828C62.379 36.911 62.1938 36.9351 62.0449 36.9553C61.6948 36.9995 61.3748 37.074 61.085 37.1786C60.7993 37.2833 60.5699 37.4342 60.3968 37.6314C60.2278 37.8246 60.1433 38.0821 60.1433 38.4041C60.1433 38.8509 60.3083 39.1889 60.6383 39.4183C60.9683 39.6437 61.3889 39.7564 61.9 39.7564ZM70.2929 35.4943V41H68.4878V31.7273H70.2204V33.2365H70.3351C70.5484 32.7455 70.8825 32.3511 71.3373 32.0533C71.7961 31.7554 72.3736 31.6065 73.0699 31.6065C73.7017 31.6065 74.2551 31.7393 74.73 32.005C75.2049 32.2666 75.5732 32.657 75.8348 33.1761C76.0964 33.6953 76.2272 34.3372 76.2272 35.1019V41H74.4221V35.3192C74.4221 34.6471 74.2471 34.1219 73.8969 33.7436C73.5468 33.3613 73.0658 33.1701 72.4541 33.1701C72.0355 33.1701 71.6633 33.2607 71.3373 33.4418C71.0153 33.6229 70.7597 33.8885 70.5706 34.2386C70.3854 34.5848 70.2929 35.0033 70.2929 35.4943ZM82.1192 41.1811C81.3706 41.1811 80.7026 40.9899 80.115 40.6076C79.5314 40.2212 79.0726 39.6719 78.7385 38.9595C78.4085 38.2431 78.2435 37.3839 78.2435 36.3817C78.2435 35.3796 78.4105 34.5224 78.7446 33.81C79.0827 33.0977 79.5455 32.5523 80.1331 32.174C80.7207 31.7957 81.3867 31.6065 82.1313 31.6065C82.7068 31.6065 83.1697 31.7031 83.5198 31.8963C83.874 32.0855 84.1476 32.3068 84.3408 32.5604C84.538 32.8139 84.691 33.0373 84.7996 33.2305H84.9083V28.6364H86.7133V41H84.9506V39.5572H84.7996C84.691 39.7544 84.534 39.9798 84.3287 40.2333C84.1275 40.4869 83.8498 40.7082 83.4956 40.8974C83.1415 41.0865 82.6827 41.1811 82.1192 41.1811ZM82.5177 39.6417C83.0368 39.6417 83.4755 39.5049 83.8337 39.2312C84.1959 38.9535 84.4696 38.5691 84.6547 38.0781C84.8439 37.5871 84.9385 37.0156 84.9385 36.3636C84.9385 35.7197 84.8459 35.1562 84.6608 34.6733C84.4756 34.1903 84.204 33.814 83.8458 33.5444C83.4876 33.2747 83.0449 33.1399 82.5177 33.1399C81.9743 33.1399 81.5216 33.2808 81.1594 33.5625C80.7971 33.8442 80.5235 34.2286 80.3383 34.7156C80.1572 35.2025 80.0667 35.7519 80.0667 36.3636C80.0667 36.9834 80.1592 37.5408 80.3444 38.0359C80.5295 38.5309 80.8032 38.9233 81.1654 39.2131C81.5316 39.4988 81.9824 39.6417 82.5177 39.6417ZM96.2381 33.9911L94.6021 34.2809C94.5337 34.0716 94.425 33.8724 94.2761 33.6832C94.1312 33.4941 93.934 33.3391 93.6845 33.2184C93.435 33.0977 93.123 33.0373 92.7488 33.0373C92.2376 33.0373 91.811 33.152 91.4689 33.3814C91.1268 33.6068 90.9558 33.8986 90.9558 34.2567C90.9558 34.5666 91.0705 34.8162 91.2999 35.0053C91.5293 35.1945 91.8996 35.3494 92.4107 35.4702L93.8837 35.8082C94.7369 36.0054 95.3728 36.3093 95.7914 36.7198C96.2099 37.1303 96.4192 37.6636 96.4192 38.3196C96.4192 38.875 96.2582 39.37 95.9363 39.8047C95.6183 40.2353 95.1736 40.5734 94.6021 40.8189C94.0346 41.0644 93.3766 41.1871 92.628 41.1871C91.5897 41.1871 90.7425 40.9658 90.0865 40.5231C89.4305 40.0763 89.028 39.4425 88.8791 38.6214L90.6238 38.3558C90.7324 38.8106 90.9558 39.1547 91.2939 39.3881C91.6319 39.6175 92.0726 39.7322 92.6159 39.7322C93.2076 39.7322 93.6805 39.6095 94.0346 39.364C94.3888 39.1145 94.5659 38.8106 94.5659 38.4524C94.5659 38.1626 94.4572 37.9192 94.2399 37.7219C94.0266 37.5247 93.6986 37.3758 93.2559 37.2752L91.6863 36.9311C90.821 36.7339 90.181 36.42 89.7665 35.9893C89.356 35.5587 89.1507 35.0134 89.1507 34.3533C89.1507 33.806 89.3037 33.3271 89.6096 32.9165C89.9154 32.506 90.338 32.1861 90.8773 31.9567C91.4166 31.7232 92.0344 31.6065 92.7306 31.6065C93.7328 31.6065 94.5216 31.8239 95.0971 32.2585C95.6726 32.6892 96.053 33.2667 96.2381 33.9911ZM102.31 41.1871C101.412 41.1871 100.64 40.9839 99.9916 40.5774C99.3476 40.1669 98.8526 39.6014 98.5065 38.881C98.1604 38.1606 97.9873 37.3356 97.9873 36.4059C97.9873 35.4641 98.1644 34.633 98.5186 33.9126C98.8727 33.1882 99.3718 32.6228 100.016 32.2163C100.66 31.8098 101.418 31.6065 102.292 31.6065C102.996 31.6065 103.624 31.7373 104.175 31.9989C104.727 32.2565 105.171 32.6187 105.509 33.0856C105.851 33.5524 106.055 34.0978 106.119 34.7216H104.362C104.266 34.2869 104.044 33.9126 103.698 33.5987C103.356 33.2848 102.897 33.1278 102.322 33.1278C101.819 33.1278 101.378 33.2607 101 33.5263C100.625 33.7879 100.334 34.1622 100.124 34.6491C99.9151 35.1321 99.8105 35.7036 99.8105 36.3636C99.8105 37.0398 99.9131 37.6233 100.118 38.1143C100.324 38.6054 100.613 38.9857 100.988 39.2553C101.366 39.525 101.811 39.6598 102.322 39.6598C102.664 39.6598 102.974 39.5974 103.252 39.4727C103.533 39.3439 103.769 39.1607 103.958 38.9233C104.151 38.6858 104.286 38.4001 104.362 38.0661H106.119C106.055 38.6657 105.859 39.201 105.533 39.6719C105.207 40.1428 104.771 40.513 104.223 40.7827C103.68 41.0523 103.042 41.1871 102.31 41.1871ZM110.748 41.2053C110.16 41.2053 109.629 41.0966 109.154 40.8793C108.679 40.6579 108.303 40.3379 108.025 39.9194C107.752 39.5008 107.615 38.9877 107.615 38.38C107.615 37.8568 107.715 37.4261 107.917 37.0881C108.118 36.75 108.389 36.4824 108.732 36.2852C109.074 36.0879 109.456 35.939 109.879 35.8384C110.301 35.7378 110.732 35.6613 111.17 35.609C111.726 35.5446 112.177 35.4923 112.523 35.4521C112.869 35.4078 113.12 35.3374 113.277 35.2408C113.434 35.1442 113.513 34.9872 113.513 34.7699V34.7276C113.513 34.2004 113.364 33.7919 113.066 33.5021C112.772 33.2124 112.334 33.0675 111.75 33.0675C111.142 33.0675 110.663 33.2023 110.313 33.4719C109.967 33.7376 109.728 34.0334 109.595 34.3594L107.898 33.973C108.1 33.4096 108.393 32.9548 108.78 32.6087C109.17 32.2585 109.619 32.005 110.126 31.848C110.633 31.687 111.166 31.6065 111.726 31.6065C112.096 31.6065 112.489 31.6508 112.903 31.7393C113.322 31.8239 113.712 31.9808 114.074 32.2102C114.44 32.4396 114.74 32.7676 114.974 33.1942C115.207 33.6168 115.324 34.1662 115.324 34.8423V41H113.561V39.7322H113.489C113.372 39.9657 113.197 40.1951 112.963 40.4205C112.73 40.6458 112.43 40.833 112.064 40.9819C111.698 41.1308 111.259 41.2053 110.748 41.2053ZM111.14 39.7564C111.639 39.7564 112.066 39.6578 112.42 39.4606C112.778 39.2634 113.05 39.0058 113.235 38.6879C113.424 38.3659 113.519 38.0218 113.519 37.6555V36.4602C113.454 36.5246 113.33 36.585 113.145 36.6413C112.963 36.6937 112.756 36.7399 112.523 36.7802C112.289 36.8164 112.062 36.8506 111.841 36.8828C111.619 36.911 111.434 36.9351 111.285 36.9553C110.935 36.9995 110.615 37.074 110.325 37.1786C110.04 37.2833 109.81 37.4342 109.637 37.6314C109.468 37.8246 109.384 38.0821 109.384 38.4041C109.384 38.8509 109.549 39.1889 109.879 39.4183C110.209 39.6437 110.629 39.7564 111.14 39.7564ZM117.728 44.4773V31.7273H119.491V33.2305H119.642C119.746 33.0373 119.897 32.8139 120.095 32.5604C120.292 32.3068 120.565 32.0855 120.916 31.8963C121.266 31.7031 121.729 31.6065 122.304 31.6065C123.053 31.6065 123.721 31.7957 124.308 32.174C124.896 32.5523 125.357 33.0977 125.691 33.81C126.029 34.5224 126.198 35.3796 126.198 36.3817C126.198 37.3839 126.031 38.2431 125.697 38.9595C125.363 39.6719 124.904 40.2212 124.32 40.6076C123.737 40.9899 123.071 41.1811 122.322 41.1811C121.759 41.1811 121.298 41.0865 120.94 40.8974C120.586 40.7082 120.308 40.4869 120.107 40.2333C119.905 39.9798 119.75 39.7544 119.642 39.5572H119.533V44.4773H117.728ZM119.497 36.3636C119.497 37.0156 119.591 37.5871 119.781 38.0781C119.97 38.5691 120.243 38.9535 120.602 39.2312C120.96 39.5049 121.399 39.6417 121.918 39.6417C122.457 39.6417 122.908 39.4988 123.27 39.2131C123.632 38.9233 123.906 38.5309 124.091 38.0359C124.28 37.5408 124.375 36.9834 124.375 36.3636C124.375 35.7519 124.282 35.2025 124.097 34.7156C123.916 34.2286 123.642 33.8442 123.276 33.5625C122.914 33.2808 122.461 33.1399 121.918 33.1399C121.395 33.1399 120.952 33.2747 120.59 33.5444C120.231 33.814 119.96 34.1903 119.775 34.6733C119.589 35.1562 119.497 35.7197 119.497 36.3636ZM132.217 41.1871C131.303 41.1871 130.516 40.992 129.856 40.6016C129.2 40.2071 128.693 39.6538 128.335 38.9414C127.981 38.225 127.804 37.3859 127.804 36.424C127.804 35.4742 127.981 34.6371 128.335 33.9126C128.693 33.1882 129.192 32.6228 129.832 32.2163C130.476 31.8098 131.229 31.6065 132.09 31.6065C132.613 31.6065 133.12 31.6931 133.611 31.8661C134.102 32.0392 134.543 32.3108 134.933 32.6811C135.324 33.0514 135.632 33.5323 135.857 34.1239C136.082 34.7115 136.195 35.4259 136.195 36.267V36.907H128.824V35.5547H134.426C134.426 35.0798 134.33 34.6592 134.136 34.293C133.943 33.9227 133.672 33.6309 133.321 33.4176C132.975 33.2043 132.569 33.0977 132.102 33.0977C131.595 33.0977 131.152 33.2224 130.774 33.4719C130.4 33.7174 130.11 34.0394 129.905 34.4379C129.703 34.8323 129.603 35.2609 129.603 35.7237V36.7802C129.603 37.4 129.711 37.9272 129.929 38.3619C130.15 38.7965 130.458 39.1286 130.852 39.358C131.247 39.5833 131.708 39.696 132.235 39.696C132.577 39.696 132.889 39.6477 133.171 39.5511C133.452 39.4505 133.696 39.3016 133.901 39.1044C134.106 38.9072 134.263 38.6637 134.372 38.3739L136.08 38.6818C135.944 39.1849 135.698 39.6256 135.344 40.0039C134.994 40.3782 134.553 40.67 134.022 40.8793C133.495 41.0845 132.893 41.1871 132.217 41.1871Z" fill="white"/>
</svg>
